<mxfile host="Electron" modified="2024-02-05T09:11:29.259Z" agent="Mozilla/5.0 (Windows NT 10.0; Win64; x64) AppleWebKit/537.36 (KHTML, like Gecko) draw.io/23.0.2 Chrome/120.0.6099.109 Electron/28.1.0 Safari/537.36" etag="nBA6RIBbkaoBbLDdwxG8" version="23.0.2" type="device">
  <diagram name="Page-1" id="NFpyb9a0S-4S_gyUI7mt">
    <mxGraphModel dx="1032" dy="1187" grid="1" gridSize="10" guides="1" tooltips="1" connect="1" arrows="1" fold="1" page="1" pageScale="1" pageWidth="850" pageHeight="1100" math="0" shadow="0">
      <root>
        <mxCell id="0" />
        <mxCell id="1" parent="0" />
        <mxCell id="PyMwMXzHNPe3ZpOCFw4B-43" value="" style="edgeStyle=orthogonalEdgeStyle;rounded=0;orthogonalLoop=1;jettySize=auto;html=1;" edge="1" parent="1" source="PyMwMXzHNPe3ZpOCFw4B-1" target="PyMwMXzHNPe3ZpOCFw4B-41">
          <mxGeometry relative="1" as="geometry" />
        </mxCell>
        <mxCell id="PyMwMXzHNPe3ZpOCFw4B-1" value="Start" style="ellipse;whiteSpace=wrap;html=1;" vertex="1" parent="1">
          <mxGeometry width="120" height="80" as="geometry" />
        </mxCell>
        <mxCell id="PyMwMXzHNPe3ZpOCFw4B-2" value="flightHours =&amp;nbsp;&lt;br&gt;rosterFile.flightHours" style="shape=parallelogram;html=1;strokeWidth=2;perimeter=parallelogramPerimeter;whiteSpace=wrap;rounded=1;arcSize=12;size=0.23;" vertex="1" parent="1">
          <mxGeometry x="5" y="380" width="180" height="40" as="geometry" />
        </mxCell>
        <mxCell id="PyMwMXzHNPe3ZpOCFw4B-4" value="missionSuccesses =&amp;nbsp;&lt;br&gt;rosterFile.missionSuccesses" style="shape=parallelogram;html=1;strokeWidth=2;perimeter=parallelogramPerimeter;whiteSpace=wrap;rounded=1;arcSize=12;size=0.23;" vertex="1" parent="1">
          <mxGeometry x="5" y="450" width="260" height="40" as="geometry" />
        </mxCell>
        <mxCell id="PyMwMXzHNPe3ZpOCFw4B-21" value="" style="edgeStyle=orthogonalEdgeStyle;rounded=0;orthogonalLoop=1;jettySize=auto;html=1;entryX=0.5;entryY=0;entryDx=0;entryDy=0;" edge="1" parent="1" source="PyMwMXzHNPe3ZpOCFw4B-5" target="PyMwMXzHNPe3ZpOCFw4B-6">
          <mxGeometry relative="1" as="geometry" />
        </mxCell>
        <mxCell id="PyMwMXzHNPe3ZpOCFw4B-5" value="name =&amp;nbsp;&lt;br&gt;rosterFile.name" style="shape=parallelogram;html=1;strokeWidth=2;perimeter=parallelogramPerimeter;whiteSpace=wrap;rounded=1;arcSize=12;size=0.23;" vertex="1" parent="1">
          <mxGeometry x="5" y="520" width="180" height="40" as="geometry" />
        </mxCell>
        <mxCell id="PyMwMXzHNPe3ZpOCFw4B-20" value="" style="edgeStyle=orthogonalEdgeStyle;rounded=0;orthogonalLoop=1;jettySize=auto;html=1;" edge="1" parent="1" source="PyMwMXzHNPe3ZpOCFw4B-6" target="PyMwMXzHNPe3ZpOCFw4B-11">
          <mxGeometry relative="1" as="geometry" />
        </mxCell>
        <mxCell id="PyMwMXzHNPe3ZpOCFw4B-6" value="If&lt;br&gt;missionSuccesses&lt;br&gt;&amp;lt; 50" style="rhombus;whiteSpace=wrap;html=1;" vertex="1" parent="1">
          <mxGeometry x="5" y="590" width="110" height="110" as="geometry" />
        </mxCell>
        <mxCell id="PyMwMXzHNPe3ZpOCFw4B-19" value="" style="edgeStyle=orthogonalEdgeStyle;rounded=0;orthogonalLoop=1;jettySize=auto;html=1;" edge="1" parent="1" source="PyMwMXzHNPe3ZpOCFw4B-11" target="PyMwMXzHNPe3ZpOCFw4B-12">
          <mxGeometry relative="1" as="geometry" />
        </mxCell>
        <mxCell id="PyMwMXzHNPe3ZpOCFw4B-11" value="If&lt;br&gt;missionSuccesses&lt;br&gt;&amp;lt; 75" style="rhombus;whiteSpace=wrap;html=1;" vertex="1" parent="1">
          <mxGeometry x="5" y="730" width="110" height="110" as="geometry" />
        </mxCell>
        <mxCell id="PyMwMXzHNPe3ZpOCFw4B-12" value="If&lt;br&gt;missionSuccesses&lt;br&gt;&amp;lt; 100" style="rhombus;whiteSpace=wrap;html=1;" vertex="1" parent="1">
          <mxGeometry x="5" y="870" width="110" height="110" as="geometry" />
        </mxCell>
        <mxCell id="PyMwMXzHNPe3ZpOCFw4B-13" value="" style="endArrow=classic;html=1;rounded=0;exitX=1;exitY=0.5;exitDx=0;exitDy=0;" edge="1" parent="1" source="PyMwMXzHNPe3ZpOCFw4B-6">
          <mxGeometry width="50" height="50" relative="1" as="geometry">
            <mxPoint x="385" y="710" as="sourcePoint" />
            <mxPoint x="185" y="645" as="targetPoint" />
          </mxGeometry>
        </mxCell>
        <mxCell id="PyMwMXzHNPe3ZpOCFw4B-14" value="True" style="text;html=1;align=center;verticalAlign=middle;resizable=0;points=[];autosize=1;strokeColor=none;fillColor=none;" vertex="1" parent="1">
          <mxGeometry x="115" y="640" width="50" height="30" as="geometry" />
        </mxCell>
        <mxCell id="PyMwMXzHNPe3ZpOCFw4B-15" value="" style="endArrow=classic;html=1;rounded=0;exitX=1;exitY=0.5;exitDx=0;exitDy=0;" edge="1" parent="1" source="PyMwMXzHNPe3ZpOCFw4B-11">
          <mxGeometry width="50" height="50" relative="1" as="geometry">
            <mxPoint x="135" y="780" as="sourcePoint" />
            <mxPoint x="185" y="785" as="targetPoint" />
          </mxGeometry>
        </mxCell>
        <mxCell id="PyMwMXzHNPe3ZpOCFw4B-16" value="" style="endArrow=classic;html=1;rounded=0;exitX=1;exitY=0.5;exitDx=0;exitDy=0;" edge="1" parent="1">
          <mxGeometry width="50" height="50" relative="1" as="geometry">
            <mxPoint x="115" y="924.5" as="sourcePoint" />
            <mxPoint x="185" y="924.5" as="targetPoint" />
          </mxGeometry>
        </mxCell>
        <mxCell id="PyMwMXzHNPe3ZpOCFw4B-17" value="True" style="text;html=1;align=center;verticalAlign=middle;resizable=0;points=[];autosize=1;strokeColor=none;fillColor=none;" vertex="1" parent="1">
          <mxGeometry x="110" y="780" width="50" height="30" as="geometry" />
        </mxCell>
        <mxCell id="PyMwMXzHNPe3ZpOCFw4B-18" value="True" style="text;html=1;align=center;verticalAlign=middle;resizable=0;points=[];autosize=1;strokeColor=none;fillColor=none;" vertex="1" parent="1">
          <mxGeometry x="115" y="920" width="50" height="30" as="geometry" />
        </mxCell>
        <mxCell id="PyMwMXzHNPe3ZpOCFw4B-24" value="" style="endArrow=classic;html=1;rounded=0;exitX=0.556;exitY=0.975;exitDx=0;exitDy=0;exitPerimeter=0;entryX=0.388;entryY=0.025;entryDx=0;entryDy=0;entryPerimeter=0;" edge="1" parent="1" source="PyMwMXzHNPe3ZpOCFw4B-2" target="PyMwMXzHNPe3ZpOCFw4B-4">
          <mxGeometry width="50" height="50" relative="1" as="geometry">
            <mxPoint x="385" y="710" as="sourcePoint" />
            <mxPoint x="435" y="660" as="targetPoint" />
          </mxGeometry>
        </mxCell>
        <mxCell id="PyMwMXzHNPe3ZpOCFw4B-25" value="" style="endArrow=classic;html=1;rounded=0;exitX=0.35;exitY=0.95;exitDx=0;exitDy=0;exitPerimeter=0;entryX=0.5;entryY=0;entryDx=0;entryDy=0;" edge="1" parent="1" source="PyMwMXzHNPe3ZpOCFw4B-4" target="PyMwMXzHNPe3ZpOCFw4B-5">
          <mxGeometry width="50" height="50" relative="1" as="geometry">
            <mxPoint x="385" y="710" as="sourcePoint" />
            <mxPoint x="435" y="660" as="targetPoint" />
          </mxGeometry>
        </mxCell>
        <mxCell id="PyMwMXzHNPe3ZpOCFw4B-26" value="False" style="text;html=1;align=center;verticalAlign=middle;resizable=0;points=[];autosize=1;strokeColor=none;fillColor=none;" vertex="1" parent="1">
          <mxGeometry x="60" y="698" width="50" height="30" as="geometry" />
        </mxCell>
        <mxCell id="PyMwMXzHNPe3ZpOCFw4B-27" value="False" style="text;html=1;align=center;verticalAlign=middle;resizable=0;points=[];autosize=1;strokeColor=none;fillColor=none;" vertex="1" parent="1">
          <mxGeometry x="60" y="838" width="50" height="30" as="geometry" />
        </mxCell>
        <mxCell id="PyMwMXzHNPe3ZpOCFw4B-28" value="" style="endArrow=classic;html=1;rounded=0;exitX=0.5;exitY=1;exitDx=0;exitDy=0;" edge="1" parent="1" source="PyMwMXzHNPe3ZpOCFw4B-12">
          <mxGeometry width="50" height="50" relative="1" as="geometry">
            <mxPoint x="385" y="710" as="sourcePoint" />
            <mxPoint x="60" y="1020" as="targetPoint" />
          </mxGeometry>
        </mxCell>
        <mxCell id="PyMwMXzHNPe3ZpOCFw4B-29" value="False" style="text;html=1;align=center;verticalAlign=middle;resizable=0;points=[];autosize=1;strokeColor=none;fillColor=none;" vertex="1" parent="1">
          <mxGeometry x="60" y="980" width="50" height="30" as="geometry" />
        </mxCell>
        <mxCell id="PyMwMXzHNPe3ZpOCFw4B-30" value="assignment &lt;br&gt;is &quot;Novice&quot;" style="rounded=0;whiteSpace=wrap;html=1;" vertex="1" parent="1">
          <mxGeometry x="185" y="615" width="120" height="60" as="geometry" />
        </mxCell>
        <mxCell id="PyMwMXzHNPe3ZpOCFw4B-31" value="assignment &lt;br&gt;is &quot;Specialist&quot;" style="rounded=0;whiteSpace=wrap;html=1;" vertex="1" parent="1">
          <mxGeometry x="185" y="755" width="120" height="60" as="geometry" />
        </mxCell>
        <mxCell id="PyMwMXzHNPe3ZpOCFw4B-32" value="assignment &lt;br&gt;is &quot;Veteran&quot;" style="rounded=0;whiteSpace=wrap;html=1;" vertex="1" parent="1">
          <mxGeometry x="185" y="895" width="120" height="60" as="geometry" />
        </mxCell>
        <mxCell id="PyMwMXzHNPe3ZpOCFw4B-35" value="" style="edgeStyle=orthogonalEdgeStyle;rounded=0;orthogonalLoop=1;jettySize=auto;html=1;" edge="1" parent="1" source="PyMwMXzHNPe3ZpOCFw4B-33" target="PyMwMXzHNPe3ZpOCFw4B-34">
          <mxGeometry relative="1" as="geometry" />
        </mxCell>
        <mxCell id="PyMwMXzHNPe3ZpOCFw4B-33" value="assignment &lt;br&gt;is &quot;Elite&quot;" style="rounded=0;whiteSpace=wrap;html=1;" vertex="1" parent="1">
          <mxGeometry y="1010" width="120" height="60" as="geometry" />
        </mxCell>
        <mxCell id="PyMwMXzHNPe3ZpOCFw4B-56" value="" style="edgeStyle=orthogonalEdgeStyle;rounded=0;orthogonalLoop=1;jettySize=auto;html=1;" edge="1" parent="1" source="PyMwMXzHNPe3ZpOCFw4B-34" target="PyMwMXzHNPe3ZpOCFw4B-53">
          <mxGeometry relative="1" as="geometry" />
        </mxCell>
        <mxCell id="PyMwMXzHNPe3ZpOCFw4B-68" value="" style="edgeStyle=orthogonalEdgeStyle;rounded=0;orthogonalLoop=1;jettySize=auto;html=1;" edge="1" parent="1" source="PyMwMXzHNPe3ZpOCFw4B-34" target="PyMwMXzHNPe3ZpOCFw4B-62">
          <mxGeometry relative="1" as="geometry" />
        </mxCell>
        <mxCell id="PyMwMXzHNPe3ZpOCFw4B-34" value="If&amp;nbsp;&lt;br&gt;assignment&lt;br&gt;is &quot;Novice&quot;" style="strokeWidth=2;html=1;shape=mxgraph.flowchart.decision;whiteSpace=wrap;" vertex="1" parent="1">
          <mxGeometry x="330" y="215" width="115" height="110" as="geometry" />
        </mxCell>
        <mxCell id="PyMwMXzHNPe3ZpOCFw4B-38" value="" style="endArrow=none;html=1;rounded=0;exitX=1;exitY=0.417;exitDx=0;exitDy=0;exitPerimeter=0;" edge="1" parent="1" source="PyMwMXzHNPe3ZpOCFw4B-30">
          <mxGeometry width="50" height="50" relative="1" as="geometry">
            <mxPoint x="385" y="710" as="sourcePoint" />
            <mxPoint x="390" y="640" as="targetPoint" />
            <Array as="points">
              <mxPoint x="365" y="640" />
            </Array>
          </mxGeometry>
        </mxCell>
        <mxCell id="PyMwMXzHNPe3ZpOCFw4B-39" value="" style="endArrow=none;html=1;rounded=0;exitX=1;exitY=0.5;exitDx=0;exitDy=0;" edge="1" parent="1" source="PyMwMXzHNPe3ZpOCFw4B-31">
          <mxGeometry width="50" height="50" relative="1" as="geometry">
            <mxPoint x="385" y="710" as="sourcePoint" />
            <mxPoint x="390" y="785" as="targetPoint" />
          </mxGeometry>
        </mxCell>
        <mxCell id="PyMwMXzHNPe3ZpOCFw4B-40" value="" style="endArrow=none;html=1;rounded=0;exitX=1;exitY=0.5;exitDx=0;exitDy=0;" edge="1" parent="1" source="PyMwMXzHNPe3ZpOCFw4B-32">
          <mxGeometry width="50" height="50" relative="1" as="geometry">
            <mxPoint x="385" y="710" as="sourcePoint" />
            <mxPoint x="390" y="925" as="targetPoint" />
          </mxGeometry>
        </mxCell>
        <mxCell id="PyMwMXzHNPe3ZpOCFw4B-44" value="" style="edgeStyle=orthogonalEdgeStyle;rounded=0;orthogonalLoop=1;jettySize=auto;html=1;" edge="1" parent="1" source="PyMwMXzHNPe3ZpOCFw4B-41" target="PyMwMXzHNPe3ZpOCFw4B-42">
          <mxGeometry relative="1" as="geometry" />
        </mxCell>
        <mxCell id="PyMwMXzHNPe3ZpOCFw4B-41" value="While" style="rounded=1;whiteSpace=wrap;html=1;" vertex="1" parent="1">
          <mxGeometry y="110" width="120" height="60" as="geometry" />
        </mxCell>
        <mxCell id="PyMwMXzHNPe3ZpOCFw4B-45" value="" style="edgeStyle=orthogonalEdgeStyle;rounded=0;orthogonalLoop=1;jettySize=auto;html=1;entryX=0.306;entryY=-0.05;entryDx=0;entryDy=0;entryPerimeter=0;" edge="1" parent="1" source="PyMwMXzHNPe3ZpOCFw4B-42" target="PyMwMXzHNPe3ZpOCFw4B-2">
          <mxGeometry relative="1" as="geometry">
            <mxPoint x="60" y="370" as="targetPoint" />
          </mxGeometry>
        </mxCell>
        <mxCell id="PyMwMXzHNPe3ZpOCFw4B-42" value="reading &lt;br&gt;members&lt;br&gt;from input &lt;br&gt;file" style="rhombus;whiteSpace=wrap;html=1;" vertex="1" parent="1">
          <mxGeometry x="10" y="220" width="100" height="100" as="geometry" />
        </mxCell>
        <mxCell id="PyMwMXzHNPe3ZpOCFw4B-47" value="True" style="text;html=1;align=center;verticalAlign=middle;resizable=0;points=[];autosize=1;strokeColor=none;fillColor=none;" vertex="1" parent="1">
          <mxGeometry x="60" y="328" width="50" height="30" as="geometry" />
        </mxCell>
        <mxCell id="PyMwMXzHNPe3ZpOCFw4B-48" value="False" style="text;html=1;align=center;verticalAlign=middle;resizable=0;points=[];autosize=1;strokeColor=none;fillColor=none;" vertex="1" parent="1">
          <mxGeometry x="110" y="270" width="50" height="30" as="geometry" />
        </mxCell>
        <mxCell id="PyMwMXzHNPe3ZpOCFw4B-49" value="" style="endArrow=classic;html=1;rounded=0;exitX=1;exitY=0.5;exitDx=0;exitDy=0;" edge="1" parent="1" source="PyMwMXzHNPe3ZpOCFw4B-42">
          <mxGeometry width="50" height="50" relative="1" as="geometry">
            <mxPoint x="360" y="580" as="sourcePoint" />
            <mxPoint x="180" y="270" as="targetPoint" />
          </mxGeometry>
        </mxCell>
        <mxCell id="PyMwMXzHNPe3ZpOCFw4B-52" value="" style="edgeStyle=orthogonalEdgeStyle;rounded=0;orthogonalLoop=1;jettySize=auto;html=1;" edge="1" parent="1" source="PyMwMXzHNPe3ZpOCFw4B-50" target="PyMwMXzHNPe3ZpOCFw4B-51">
          <mxGeometry relative="1" as="geometry" />
        </mxCell>
        <mxCell id="PyMwMXzHNPe3ZpOCFw4B-50" value="End while" style="rounded=1;whiteSpace=wrap;html=1;" vertex="1" parent="1">
          <mxGeometry x="175" y="240" width="120" height="60" as="geometry" />
        </mxCell>
        <mxCell id="PyMwMXzHNPe3ZpOCFw4B-51" value="End" style="ellipse;whiteSpace=wrap;html=1;" vertex="1" parent="1">
          <mxGeometry x="175" y="130" width="120" height="80" as="geometry" />
        </mxCell>
        <mxCell id="PyMwMXzHNPe3ZpOCFw4B-57" value="" style="edgeStyle=orthogonalEdgeStyle;rounded=0;orthogonalLoop=1;jettySize=auto;html=1;" edge="1" parent="1" source="PyMwMXzHNPe3ZpOCFw4B-53" target="PyMwMXzHNPe3ZpOCFw4B-54">
          <mxGeometry relative="1" as="geometry" />
        </mxCell>
        <mxCell id="PyMwMXzHNPe3ZpOCFw4B-69" value="" style="edgeStyle=orthogonalEdgeStyle;rounded=0;orthogonalLoop=1;jettySize=auto;html=1;" edge="1" parent="1" source="PyMwMXzHNPe3ZpOCFw4B-53" target="PyMwMXzHNPe3ZpOCFw4B-65">
          <mxGeometry relative="1" as="geometry" />
        </mxCell>
        <mxCell id="PyMwMXzHNPe3ZpOCFw4B-53" value="If&amp;nbsp;&lt;br&gt;assignment&lt;br&gt;is &quot;Specialist&quot;" style="strokeWidth=2;html=1;shape=mxgraph.flowchart.decision;whiteSpace=wrap;" vertex="1" parent="1">
          <mxGeometry x="480" y="215" width="115" height="110" as="geometry" />
        </mxCell>
        <mxCell id="PyMwMXzHNPe3ZpOCFw4B-58" value="" style="edgeStyle=orthogonalEdgeStyle;rounded=0;orthogonalLoop=1;jettySize=auto;html=1;" edge="1" parent="1" source="PyMwMXzHNPe3ZpOCFw4B-54">
          <mxGeometry relative="1" as="geometry">
            <mxPoint x="687.5" y="360" as="targetPoint" />
          </mxGeometry>
        </mxCell>
        <mxCell id="PyMwMXzHNPe3ZpOCFw4B-70" value="" style="edgeStyle=orthogonalEdgeStyle;rounded=0;orthogonalLoop=1;jettySize=auto;html=1;" edge="1" parent="1" source="PyMwMXzHNPe3ZpOCFw4B-54" target="PyMwMXzHNPe3ZpOCFw4B-66">
          <mxGeometry relative="1" as="geometry" />
        </mxCell>
        <mxCell id="PyMwMXzHNPe3ZpOCFw4B-54" value="If&amp;nbsp;&lt;br&gt;assignment&lt;br&gt;is &quot;Veteran&quot;" style="strokeWidth=2;html=1;shape=mxgraph.flowchart.decision;whiteSpace=wrap;" vertex="1" parent="1">
          <mxGeometry x="630" y="215" width="115" height="110" as="geometry" />
        </mxCell>
        <mxCell id="PyMwMXzHNPe3ZpOCFw4B-59" value="False" style="text;html=1;align=center;verticalAlign=middle;resizable=0;points=[];autosize=1;strokeColor=none;fillColor=none;" vertex="1" parent="1">
          <mxGeometry x="435" y="278" width="50" height="30" as="geometry" />
        </mxCell>
        <mxCell id="PyMwMXzHNPe3ZpOCFw4B-60" value="False" style="text;html=1;align=center;verticalAlign=middle;resizable=0;points=[];autosize=1;strokeColor=none;fillColor=none;" vertex="1" parent="1">
          <mxGeometry x="585" y="278" width="50" height="30" as="geometry" />
        </mxCell>
        <mxCell id="PyMwMXzHNPe3ZpOCFw4B-61" value="False" style="text;html=1;align=center;verticalAlign=middle;resizable=0;points=[];autosize=1;strokeColor=none;fillColor=none;" vertex="1" parent="1">
          <mxGeometry x="625" y="328" width="50" height="30" as="geometry" />
        </mxCell>
        <mxCell id="PyMwMXzHNPe3ZpOCFw4B-62" value="Display&lt;br&gt;name +&lt;br&gt;&quot; is not &lt;br&gt;assigned &lt;br&gt;to any&lt;br&gt;missions.&quot;&amp;nbsp;" style="shape=parallelogram;html=1;strokeWidth=2;perimeter=parallelogramPerimeter;whiteSpace=wrap;rounded=1;arcSize=12;size=0.23;" vertex="1" parent="1">
          <mxGeometry x="326.25" y="70" width="122.5" height="100" as="geometry" />
        </mxCell>
        <mxCell id="PyMwMXzHNPe3ZpOCFw4B-65" value="Display&lt;br&gt;name +&lt;br&gt;&quot; is assigned &lt;br&gt;to support&lt;br&gt;missions.&quot;&amp;nbsp;" style="shape=parallelogram;html=1;strokeWidth=2;perimeter=parallelogramPerimeter;whiteSpace=wrap;rounded=1;arcSize=12;size=0.23;" vertex="1" parent="1">
          <mxGeometry x="476.25" y="70" width="122.5" height="110" as="geometry" />
        </mxCell>
        <mxCell id="PyMwMXzHNPe3ZpOCFw4B-66" value="Display&lt;br&gt;name +&lt;br&gt;&quot; is assigned &lt;br&gt;to high-profile&lt;br&gt;missions.&quot;&amp;nbsp;" style="shape=parallelogram;html=1;strokeWidth=2;perimeter=parallelogramPerimeter;whiteSpace=wrap;rounded=1;arcSize=12;size=0.23;" vertex="1" parent="1">
          <mxGeometry x="626.25" y="72.5" width="122.5" height="105" as="geometry" />
        </mxCell>
        <mxCell id="PyMwMXzHNPe3ZpOCFw4B-67" value="Display&lt;br&gt;name +&lt;br&gt;&quot; is assigned &lt;br&gt;to flagship&lt;br&gt;missions.&quot;&amp;nbsp;" style="shape=parallelogram;html=1;strokeWidth=2;perimeter=parallelogramPerimeter;whiteSpace=wrap;rounded=1;arcSize=12;size=0.23;" vertex="1" parent="1">
          <mxGeometry x="625" y="380" width="122.5" height="110" as="geometry" />
        </mxCell>
        <mxCell id="PyMwMXzHNPe3ZpOCFw4B-71" value="True" style="text;html=1;align=center;verticalAlign=middle;resizable=0;points=[];autosize=1;strokeColor=none;fillColor=none;" vertex="1" parent="1">
          <mxGeometry x="385" y="178" width="50" height="30" as="geometry" />
        </mxCell>
        <mxCell id="PyMwMXzHNPe3ZpOCFw4B-72" value="True" style="text;html=1;align=center;verticalAlign=middle;resizable=0;points=[];autosize=1;strokeColor=none;fillColor=none;" vertex="1" parent="1">
          <mxGeometry x="535" y="185" width="50" height="30" as="geometry" />
        </mxCell>
        <mxCell id="PyMwMXzHNPe3ZpOCFw4B-73" value="True" style="text;html=1;align=center;verticalAlign=middle;resizable=0;points=[];autosize=1;strokeColor=none;fillColor=none;" vertex="1" parent="1">
          <mxGeometry x="690" y="185" width="50" height="30" as="geometry" />
        </mxCell>
        <mxCell id="PyMwMXzHNPe3ZpOCFw4B-75" value="" style="endArrow=classic;html=1;rounded=0;entryX=1;entryY=0;entryDx=0;entryDy=0;" edge="1" parent="1" target="PyMwMXzHNPe3ZpOCFw4B-42">
          <mxGeometry width="50" height="50" relative="1" as="geometry">
            <mxPoint x="800" y="40" as="sourcePoint" />
            <mxPoint x="200" y="60" as="targetPoint" />
            <Array as="points">
              <mxPoint x="200" y="40" />
            </Array>
          </mxGeometry>
        </mxCell>
        <mxCell id="PyMwMXzHNPe3ZpOCFw4B-76" value="" style="endArrow=none;html=1;rounded=0;" edge="1" parent="1">
          <mxGeometry width="50" height="50" relative="1" as="geometry">
            <mxPoint x="800" y="440" as="sourcePoint" />
            <mxPoint x="800" y="40" as="targetPoint" />
          </mxGeometry>
        </mxCell>
        <mxCell id="PyMwMXzHNPe3ZpOCFw4B-77" value="" style="endArrow=none;html=1;rounded=0;" edge="1" parent="1">
          <mxGeometry width="50" height="50" relative="1" as="geometry">
            <mxPoint x="730" y="440" as="sourcePoint" />
            <mxPoint x="800" y="440" as="targetPoint" />
          </mxGeometry>
        </mxCell>
        <mxCell id="PyMwMXzHNPe3ZpOCFw4B-78" value="" style="endArrow=none;html=1;rounded=0;exitX=1;exitY=0.5;exitDx=0;exitDy=0;exitPerimeter=0;" edge="1" parent="1" source="PyMwMXzHNPe3ZpOCFw4B-54">
          <mxGeometry width="50" height="50" relative="1" as="geometry">
            <mxPoint x="480" y="530" as="sourcePoint" />
            <mxPoint x="800" y="270" as="targetPoint" />
          </mxGeometry>
        </mxCell>
        <mxCell id="PyMwMXzHNPe3ZpOCFw4B-79" value="" style="endArrow=none;html=1;rounded=0;exitX=0.447;exitY=-0.005;exitDx=0;exitDy=0;exitPerimeter=0;" edge="1" parent="1" source="PyMwMXzHNPe3ZpOCFw4B-66">
          <mxGeometry width="50" height="50" relative="1" as="geometry">
            <mxPoint x="480" y="530" as="sourcePoint" />
            <mxPoint x="680" y="40" as="targetPoint" />
          </mxGeometry>
        </mxCell>
        <mxCell id="PyMwMXzHNPe3ZpOCFw4B-80" value="" style="endArrow=none;html=1;rounded=0;" edge="1" parent="1">
          <mxGeometry width="50" height="50" relative="1" as="geometry">
            <mxPoint x="550" y="70" as="sourcePoint" />
            <mxPoint x="550" y="40" as="targetPoint" />
          </mxGeometry>
        </mxCell>
        <mxCell id="PyMwMXzHNPe3ZpOCFw4B-81" value="" style="endArrow=none;html=1;rounded=0;exitX=0.5;exitY=0;exitDx=0;exitDy=0;" edge="1" parent="1" source="PyMwMXzHNPe3ZpOCFw4B-62">
          <mxGeometry width="50" height="50" relative="1" as="geometry">
            <mxPoint x="480" y="530" as="sourcePoint" />
            <mxPoint x="390" y="40" as="targetPoint" />
          </mxGeometry>
        </mxCell>
      </root>
    </mxGraphModel>
  </diagram>
</mxfile>
